<svg width="40" height="30" viewBox="0 0 40 30" fill="none" xmlns="http://www.w3.org/2000/svg">
<circle cx="26.9938" cy="24.0242" r="1.5" transform="rotate(-20.529 26.9938 24.0242)" fill="#FBAFAF"/>
<path d="M26.8184 23.5558L23.0745 20.6865" stroke="#FBAFAF"/>
<path d="M33.0621 10.3297C33.4495 11.3641 32.4593 12.691 31.4249 13.0784C30.3905 13.4657 30.1742 12.5906 29.7868 11.5561C29.3995 10.5217 28.9877 9.71975 30.0222 9.3324C31.0566 8.94505 32.6748 9.29527 33.0621 10.3297Z" fill="#FBAFAF"/>
<path d="M31.2036 12.0889C31.2036 12.0889 34.2594 14.0135 35.0942 15.874C35.929 17.7345 35.4865 18.9355 34.4788 19.3878C33.471 19.84 32.2796 19.3721 31.4448 17.5116C30.6099 15.6511 31.2036 12.0889 31.2036 12.0889Z" fill="#FBAFAF"/>
<path d="M30.2521 10.5254C30.2521 10.5254 27.0476 8.25057 26.1132 6.15539C25.1788 4.06021 25.5775 2.75575 26.5863 2.30584C27.5951 1.85593 28.832 2.43096 29.7664 4.52614C30.7008 6.62132 30.2521 10.5254 30.2521 10.5254Z" fill="#FBAFAF"/>
<path d="M29.8959 13.2393L29.3663 11.8249C28.9803 10.7943 27.8342 10.2691 26.8016 10.6497L14.9999 14.9998C14.9999 14.9998 12.7872 13.0858 11.4999 12.4998C10.8321 12.1957 10.1923 12.5183 9.73121 12.8992C9.23084 13.3124 9.16497 14.0169 9.39255 14.6247L10.4324 17.4017L10.1608 20.2904C10.0879 21.0653 10.8666 21.6388 11.585 21.3394C14.17 20.2619 17.1249 20.5687 19.4335 22.1541C20.2662 22.7259 21.3254 22.8555 22.2713 22.5013L26.381 20.9624C29.4843 19.8003 31.058 16.3426 29.8959 13.2393Z" fill="#FBAFAF"/>
<path d="M6 18L3.5 19" stroke="#FBAFAF" stroke-width="2" stroke-linecap="round"/>
<path d="M11.5 25L13.5 24" stroke="#FBAFAF" stroke-width="2" stroke-linecap="round"/>
<path d="M8.5 22L3 24.5" stroke="#FBAFAF" stroke-width="2" stroke-linecap="round"/>
</svg>
